<svg xmlns="http://www.w3.org/2000/svg" width="270" height="45" viewBox="0 0 270 45" fill="none">
<path d="M25.812 39.96L16.164 26.892L20.664 23.976L30.204 36.936L25.812 39.96ZM17.82 36.36C15.684 36.36 13.716 36.036 11.916 35.388C10.14 34.716 8.59197 33.792 7.27197 32.616C5.97597 31.44 4.96797 30.06 4.24797 28.476C3.52797 26.868 3.16797 25.14 3.16797 23.292C3.16797 21.42 3.52797 19.692 4.24797 18.108C4.96797 16.524 5.98797 15.144 7.30797 13.968C8.62797 12.792 10.176 11.88 11.952 11.232C13.728 10.56 15.684 10.224 17.82 10.224C19.98 10.224 21.948 10.548 23.724 11.196C25.524 11.844 27.072 12.768 28.368 13.968C29.688 15.144 30.696 16.524 31.392 18.108C32.112 19.692 32.472 21.42 32.472 23.292C32.472 25.164 32.112 26.892 31.392 28.476C30.696 30.06 29.688 31.452 28.368 32.652C27.072 33.828 25.524 34.74 23.724 35.388C21.948 36.036 19.98 36.36 17.82 36.36ZM17.856 30.6C19.08 30.6 20.208 30.42 21.24 30.06C22.272 29.676 23.16 29.16 23.904 28.512C24.648 27.84 25.224 27.06 25.632 26.172C26.04 25.284 26.244 24.324 26.244 23.292C26.244 22.26 26.04 21.3 25.632 20.412C25.224 19.524 24.648 18.756 23.904 18.108C23.16 17.436 22.26 16.92 21.204 16.56C20.172 16.176 19.056 15.984 17.856 15.984C16.632 15.984 15.504 16.176 14.472 16.56C13.44 16.92 12.54 17.424 11.772 18.072C11.004 18.72 10.416 19.488 10.008 20.376C9.62397 21.264 9.43197 22.236 9.43197 23.292C9.43197 24.324 9.62397 25.296 10.008 26.208C10.416 27.096 11.004 27.864 11.772 28.512C12.54 29.16 13.44 29.676 14.472 30.06C15.504 30.42 16.632 30.6 17.856 30.6ZM39.4636 36V10.8H59.8396V16.02H45.4036V30.78H60.1996V36H39.4636ZM42.5596 25.668V20.7H58.2196V25.668H42.5596ZM67.8445 36V10.8H73.5325L89.5525 28.8L88.5805 28.62C88.4365 27.756 88.3285 26.94 88.2565 26.172C88.1845 25.38 88.1125 24.612 88.0405 23.868C87.9925 23.124 87.9445 22.392 87.8965 21.672C87.8725 20.952 87.8605 20.208 87.8605 19.44C87.8605 18.672 87.8605 17.868 87.8605 17.028V10.8H93.8005V36H88.0405L71.4445 17.424L73.0645 17.676C73.1605 18.372 73.2445 19.032 73.3165 19.656C73.3885 20.256 73.4485 20.856 73.4965 21.456C73.5685 22.056 73.6285 22.668 73.6765 23.292C73.7245 23.892 73.7485 24.552 73.7485 25.272C73.7725 25.968 73.7845 26.736 73.7845 27.576V36H67.8445ZM115.228 36.36C113.164 36.36 111.256 36.048 109.504 35.424C107.752 34.8 106.216 33.912 104.896 32.76C103.576 31.584 102.556 30.204 101.836 28.62C101.116 27.012 100.756 25.236 100.756 23.292C100.756 21.396 101.128 19.656 101.872 18.072C102.64 16.488 103.672 15.108 104.968 13.932C106.288 12.756 107.824 11.856 109.576 11.232C111.352 10.608 113.26 10.296 115.3 10.296C116.716 10.296 118.096 10.464 119.44 10.8C120.784 11.136 122.02 11.604 123.148 12.204C124.3 12.804 125.272 13.488 126.064 14.256L122.464 18.864C121.864 18.312 121.192 17.82 120.448 17.388C119.728 16.932 118.924 16.584 118.036 16.344C117.148 16.08 116.152 15.948 115.048 15.948C114.016 15.948 113.02 16.116 112.06 16.452C111.124 16.788 110.272 17.268 109.504 17.892C108.76 18.516 108.16 19.296 107.704 20.232C107.272 21.144 107.056 22.188 107.056 23.364C107.056 24.516 107.284 25.56 107.74 26.496C108.196 27.408 108.82 28.188 109.612 28.836C110.428 29.46 111.352 29.94 112.384 30.276C113.44 30.588 114.556 30.744 115.732 30.744C116.86 30.744 117.868 30.6 118.756 30.312C119.644 30 120.448 29.616 121.168 29.16C121.888 28.68 122.524 28.224 123.076 27.792L125.992 32.508C125.32 33.132 124.42 33.744 123.292 34.344C122.188 34.92 120.94 35.4 119.548 35.784C118.18 36.168 116.74 36.36 115.228 36.36ZM145.442 36.36C143.282 36.36 141.302 36.036 139.502 35.388C137.726 34.716 136.178 33.792 134.858 32.616C133.562 31.44 132.554 30.06 131.834 28.476C131.114 26.868 130.754 25.14 130.754 23.292C130.754 21.42 131.114 19.692 131.834 18.108C132.554 16.524 133.574 15.144 134.894 13.968C136.214 12.792 137.762 11.88 139.538 11.232C141.314 10.56 143.27 10.224 145.406 10.224C147.566 10.224 149.534 10.548 151.31 11.196C153.11 11.844 154.658 12.768 155.954 13.968C157.274 15.144 158.282 16.524 158.978 18.108C159.698 19.692 160.058 21.42 160.058 23.292C160.058 25.164 159.698 26.892 158.978 28.476C158.282 30.06 157.274 31.452 155.954 32.652C154.658 33.828 153.11 34.74 151.31 35.388C149.534 36.036 147.578 36.36 145.442 36.36ZM145.442 30.6C146.666 30.6 147.794 30.42 148.826 30.06C149.858 29.676 150.746 29.16 151.49 28.512C152.234 27.84 152.81 27.06 153.218 26.172C153.626 25.284 153.83 24.324 153.83 23.292C153.83 22.26 153.626 21.3 153.218 20.412C152.81 19.524 152.234 18.756 151.49 18.108C150.746 17.436 149.846 16.92 148.79 16.56C147.758 16.176 146.642 15.984 145.442 15.984C144.218 15.984 143.09 16.176 142.058 16.56C141.026 16.92 140.126 17.424 139.358 18.072C138.59 18.72 138.002 19.5 137.594 20.412C137.21 21.3 137.018 22.26 137.018 23.292C137.018 24.324 137.21 25.296 137.594 26.208C138.002 27.096 138.59 27.864 139.358 28.512C140.126 29.16 141.026 29.676 142.058 30.06C143.09 30.42 144.218 30.6 145.442 30.6ZM167.05 36V10.8H179.218C181.378 10.8 183.298 11.124 184.978 11.772C186.682 12.42 188.134 13.32 189.334 14.472C190.534 15.624 191.446 16.968 192.07 18.504C192.718 20.016 193.042 21.648 193.042 23.4C193.042 25.176 192.718 26.832 192.07 28.368C191.446 29.88 190.534 31.212 189.334 32.364C188.158 33.492 186.706 34.38 184.978 35.028C183.274 35.676 181.354 36 179.218 36H167.05ZM173.17 31.824L172.342 30.6H179.038C180.31 30.6 181.426 30.42 182.386 30.06C183.37 29.676 184.174 29.16 184.798 28.512C185.446 27.84 185.926 27.072 186.238 26.208C186.574 25.32 186.742 24.384 186.742 23.4C186.742 22.416 186.574 21.492 186.238 20.628C185.926 19.764 185.446 19.008 184.798 18.36C184.15 17.688 183.346 17.16 182.386 16.776C181.426 16.392 180.31 16.2 179.038 16.2H172.234L173.17 15.048V31.824ZM200.001 36V10.8H220.377V16.02H205.941V30.78H220.737V36H200.001ZM203.097 25.668V20.7H218.757V25.668H203.097Z" fill="black"/>
<path d="M236 29H228V36H236V29Z" fill="#3B82F6"/>
<path d="M242.52 36V33.354H245.346V26.046H242.52V23.4H251.25V26.046H248.406V33.354H251.25V36H242.52ZM256.445 36V26.442H259.181L259.289 28.782L258.569 28.98C258.725 28.5 258.995 28.056 259.379 27.648C259.775 27.228 260.255 26.892 260.819 26.64C261.395 26.376 262.025 26.244 262.709 26.244C263.573 26.244 264.293 26.412 264.869 26.748C265.457 27.084 265.901 27.558 266.201 28.17C266.513 28.77 266.669 29.466 266.669 30.258V36H263.789V30.726C263.789 30.306 263.699 29.94 263.519 29.628C263.351 29.316 263.105 29.076 262.781 28.908C262.469 28.74 262.103 28.662 261.683 28.674C261.323 28.674 260.999 28.74 260.711 28.872C260.423 28.992 260.171 29.154 259.955 29.358C259.751 29.562 259.595 29.784 259.487 30.024C259.391 30.264 259.343 30.504 259.343 30.744V36H257.903C257.483 36 257.153 36 256.913 36C256.673 36 256.517 36 256.445 36Z" fill="#171717"/>
</svg>